<svg xmlns="http://www.w3.org/2000/svg" width="475" height="363" viewBox="0 0 475 363">
  <g fill="none" fill-rule="evenodd">
    <polyline stroke="#AEACAC" stroke-linecap="square" stroke-width="1.332" points="155.897 122.726 315.325 122.726 315.325 173.86" transform="matrix(-1 0 0 1 471.221 0)"/>
    <polyline stroke="#AEACAC" stroke-width="1.332" points="367.756 288.308 337.1 288.308 337.098 247.571 300.855 247.571" transform="matrix(-1 0 0 1 668.611 0)"/>
    <path stroke="#AEACAC" stroke-dasharray="5.328" stroke-width="1.332" d="M9.655 149.44h57.818v92.536m353.182 21h52.818V64.045"/>
    <polyline stroke="#AEACAC" stroke-width="1.35" points="85.99 302.427 155.459 302.427 155.459 256.032" transform="scale(1 -1) rotate(90 399.954 0)"/>
    <polyline stroke="#AEACAC" stroke-width="1.332" points="295.712 263.404 295.712 304 238.816 304" transform="matrix(-1 0 0 1 534.527 0)"/>
    <g fill="#BBB9B9" fill-rule="nonzero" transform="translate(.024 163.978)">
      <rect width="12.401" height="1.358" x="10.086" y="40.19"/>
      <rect width="16.457" height="1.358" x="29.019" y="40.19"/>
      <rect width="14.76" height="1.358" x="17.532" y="48.879"/>
      <path d="M53.543 24.942a4.534 4.534 0 0 0-3.245-1.358c-.752 0-1.493.184-2.157.539l-9.547 5.123.634 1.2 9.566-5.101a3.21 3.21 0 0 1 1.513-.38 3.2 3.2 0 0 1 2.286.955 3.29 3.29 0 0 1 .706 3.557 3.26 3.26 0 0 1-2.988 2.032H33.498c5.524-2.722 8.452-8.913 7.067-14.939-1.385-6.025-6.718-10.297-12.87-10.306a12.51 12.51 0 0 0-5.4 1.158c-.7.361-1.467.572-2.252.62-2.953 0-4.407-1.81-5.946-3.756C12.494 2.263 10.68 0 7.047 0a7.113 7.113 0 0 0-6.52 4.453 7.18 7.18 0 0 0 1.57 7.767l.95-.964a5.816 5.816 0 0 1-1.272-6.287 5.762 5.762 0 0 1 5.274-3.611c2.984 0 4.447 1.833 5.982 3.779 1.535 1.946 3.394 4.263 7 4.263a6.844 6.844 0 0 0 2.777-.724 11.202 11.202 0 0 1 4.898-1.054c4.78.039 9.073 2.955 10.893 7.4a11.996 11.996 0 0 1-2.557 12.966 11.672 11.672 0 0 1-8.323 3.49h-.71v1.357H50.31a4.61 4.61 0 0 0 4.217-2.87 4.653 4.653 0 0 0-.985-5.023z"/>
      <path d="M.67 32.844h21.813l-1.35-1.19a7.27 7.27 0 0 1-.468-10.423 7.063 7.063 0 0 1 4.984-2.205 7.06 7.06 0 0 1 5.067 2.006l.937-.978a8.407 8.407 0 0 0-6.033-2.384 8.41 8.41 0 0 0-5.932 2.624 8.634 8.634 0 0 0-.563 11.193H.67v1.357zm3.807-15.551l-.45-.547-.09.068-.459-3.042-1.35.213 1.598 10.124 1.35-.212-.752-4.707a9.472 9.472 0 0 0 6.667 2.747c4.316-.018 8.083-2.944 9.192-7.137l.175-.652-1.305-.353-.171.656a8.209 8.209 0 0 1-3.84 5.01 8.033 8.033 0 0 1-6.19.81 8.21 8.21 0 0 1-4.375-2.978zm5.951-10.16l-1.35-.086A2.81 2.81 0 0 1 6.12 9.694l-.08 1.358h.238a4.173 4.173 0 0 0 4.15-3.92z"/>
    </g>
    <path fill="#BBB9B9" fill-rule="nonzero" d="M136 208.944v-54.75l-6.311-6.459 6.117-6.255-.965-.945-6.117 6.238-6.64-6.773v18.992c0 7.196 5.576 13.11 12.564 13.492v27.547a29.368 29.368 0 0 0-7.214-11.968l-4.805-4.929v5.653a40.256 40.256 0 0 0 12.019 28.9v5.964H94.917v-5.964a40.248 40.248 0 0 0 12.019-28.9v-5.653l-4.82 4.907a29.336 29.336 0 0 0-7.213 11.967v-27.546c6.983-.36 12.56-6.26 12.56-13.492V140l-6.627 6.773-6.595-6.733-6.6 6.747L81 140v18.992c0 7.196 5.577 13.11 12.564 13.492v27.547a29.368 29.368 0 0 0-7.213-11.968l-4.806-4.929v5.653a40.248 40.248 0 0 0 12.02 28.9v5.964H81V225h55v-16.056zm-1.352-37.831c-6.244-.36-11.212-5.658-11.212-12.143v-15.66l11.212 11.432v16.37zm-31.558 17.872l2.502-2.545v2.347a38.91 38.91 0 0 1-10.666 26.984v-6.858a28.15 28.15 0 0 1 8.164-19.928zm-8.85-47.015l5.654 5.765-5.653 5.757-5.654-5.757 5.654-5.765zm-11.888 17.022V143.31l11.889 12.143 11.883-12.143v15.682c0 6.692-5.333 12.143-11.883 12.143-6.55 0-11.889-5.45-11.889-12.143zm.546 29.795v-2.347l2.502 2.55a28.136 28.136 0 0 1 8.164 19.918v6.859a38.923 38.923 0 0 1-10.666-26.98zm51.75 26.984a38.923 38.923 0 0 1-10.667-26.984v-2.347l2.502 2.55a28.15 28.15 0 0 1 8.165 19.927v6.854z"/>
    <g transform="translate(261 101)">
      <g fill="#BBB9B9" fill-rule="nonzero" transform="translate(0 19.34)">
        <path d="M29.737 1.65A2.32 2.32 0 0 0 27.513 0a2.32 2.32 0 0 0-2.223 1.65H0V3h25.28a2.33 2.33 0 0 0 1.536 1.52v4.614H19.37l-.19.355a16.213 16.213 0 0 0 0 15.444l.19.355h16.293l.194-.355a16.213 16.213 0 0 0 0-15.444l-.194-.355h-7.476V4.519A2.33 2.33 0 0 0 29.728 3h25.348V1.65h-25.34zm5.1 22.289H20.19a14.831 14.831 0 0 1-1.228-9.998h17.154c.755 3.38.303 6.915-1.277 9.998zm.868-11.347H19.322c.236-.718.525-1.417.867-2.091h14.649c.341.674.63 1.373.867 2.091zm-9.156-10.28a.969.969 0 0 1 .962-.963.968.968 0 0 1 .966.962.934.934 0 0 1-.289.68.954.954 0 0 1-1.332 0 .943.943 0 0 1-.307-.68zm19.245 59.27V55.38l.18.175 3.116-3.103-.957-.953-2.339 2.33v-4.61H44.44v2.5l-1.354-1.35-.957.954 2.306 2.298v7.965a2.735 2.735 0 0 1-2.73 2.726h-9.337V47.63l-8.442-5.936-7.742 5.46-7.751-5.46L0 47.63v18.03h1.354v-7.902h6.402v7.902H9.11v-7.902h6.402v7.902h1.354v-7.902h6.388v7.902h1.354v-7.902h6.406v7.902h10.69a4.099 4.099 0 0 0 3.418-1.84 4.099 4.099 0 0 0 3.413 1.84h6.491v-1.35h-6.491a2.744 2.744 0 0 1-2.74-2.73zM7.76 47.307H2.794l4.966-3.49v3.49zm1.355-3.48l4.934 3.48H9.115v-3.48zm14.139 3.48h-4.966l4.966-3.485v3.485zm1.354-3.485l4.966 3.485h-4.966v-3.485zM1.354 56.41v-7.754H7.76v7.754H1.354zm7.76 0v-7.754h6.402v7.754H9.115zm7.752 0v-7.754h6.392v7.754h-6.392zm7.742 0v-7.754h6.406v7.754h-6.406z"/>
        <path d="M52.638 42.684a5.808 5.808 0 0 0-2.081-.9c-1.021-2.823-4.05-4.39-6.957-3.597a5.797 5.797 0 0 0-3.918 3.597 5.696 5.696 0 0 0-3.998 3.329 5.661 5.661 0 0 0 .386 5.176 4.958 4.958 0 0 0 .46 4.663 4.998 4.998 0 0 0 4.145 2.213c.458 0 .914-.063 1.354-.188l-.365-1.296a3.642 3.642 0 0 1-3.803-1.194 3.61 3.61 0 0 1-.414-3.95l.19-.365-.24-.333a4.317 4.317 0 0 1-.451-4.215 4.345 4.345 0 0 1 3.377-2.58l.451-.063.118-.45a4.42 4.42 0 0 1 6.447-2.66 4.396 4.396 0 0 1 2.067 2.66l.117.45.452.063a4.32 4.32 0 0 1 1.914.764A4.32 4.32 0 0 1 52.9 49.84l-.24.333.186.364a3.614 3.614 0 0 1-.42 3.946 3.647 3.647 0 0 1-3.797 1.2l-.365 1.299a5.005 5.005 0 0 0 5.054-1.523 4.96 4.96 0 0 0 .855-5.192 5.671 5.671 0 0 0-1.535-7.582z"/>
      </g>
      <path fill="#FFF" d="M26.55 21.65a.969.969 0 0 1 .96-.962.968.968 0 0 1 .967.962.934.934 0 0 1-.289.68.954.954 0 0 1-1.332 0 .943.943 0 0 1-.307-.68z"/>
    </g>
    <g transform="matrix(-1 0 0 1 458 0)">
      <path fill="#BBB9B9" d="M18.584 55.99c.033-.273.05-.55.05-.832a7.714 7.714 0 0 0-3.964-6.737 5.84 5.84 0 0 0-3.04-6.74c.022-.16.03-.316.03-.47 0-.607-.134-1.181-.365-1.704v-6.072h8.16v23.57a7.785 7.785 0 0 0-.871-1.014zM1.568 74.039h8.16v6.554h1.567v-6.554h8.16v6.554h1.567v-6.554h8.16v6.554h1.568v-6.554h13.586V59.233h-15.02c.013-5.679 4.635-10.295 10.318-10.295h.226a2.631 2.631 0 0 0 2.628-2.627v-.884c0-.633.27-1.241.74-1.668a2.217 2.217 0 0 1 1.74-.575C46.106 43.291 47 44.335 47 45.56v.3a2.257 2.257 0 0 1-2.255 2.255v1.57a3.827 3.827 0 0 0 3.822-3.825v-.3c0-2.025-1.515-3.754-3.45-3.938a3.877 3.877 0 0 0-2.944.977 3.829 3.829 0 0 0-1.252 2.83v.883c0 .583-.477 1.058-1.061 1.058h-.226c-6.548 0-11.872 5.32-11.886 11.864h-6.726V33.435h14.302V18.64H26.69c.326-2.591 2.11-4.571 2.13-4.593l-1.15-1.07c-.098.107-2.228 2.463-2.55 5.663h-5.963c.005-.116.034-.229.034-.345a6.28 6.28 0 0 0-.495-2.456 7.19 7.19 0 0 0 1.088-3.817c0-3.418-2.431-6.381-5.735-7.092A7.366 7.366 0 0 0 7.112 0 7.364 7.364 0 0 0 .027 5.41l1.514.415a5.791 5.791 0 0 1 5.57-4.256 5.792 5.792 0 0 1 5.574 4.256l.136.496.51.074c2.784.396 4.885 2.815 4.885 5.626a5.64 5.64 0 0 1-1.057 3.294l-.276.388.217.424c.346.678.523 1.409.523 2.167 0 .116-.027.23-.035.345H7.643c.287-4.023 2.616-7.252 2.643-7.286l-1.259-.938c-.085.115-1.499 2.038-2.357 4.847-.873-1.997-2.064-3.293-2.143-3.377l-1.15 1.07c.027.026 2.239 2.486 2.575 5.684H.784v1.57h32.973v11.657H.784v1.57h8.943v4.235a4.186 4.186 0 0 0-2.291-.686 4.23 4.23 0 0 0-4.225 4.226c0 .154.01.31.031.47A5.84 5.84 0 0 0 0 46.898h1.568a4.268 4.268 0 0 1 2.836-4.01l.692-.245-.2-.709a2.603 2.603 0 0 1-.118-.724 2.66 2.66 0 0 1 2.658-2.656 2.66 2.66 0 0 1 2.657 2.656c0 .22-.037.449-.116.72l-.208.71.699.247a4.268 4.268 0 0 1 2.836 4.011c0 .558-.11 1.104-.321 1.621l-.29.709.7.307a6.147 6.147 0 0 1 3.674 5.622c0 .344-.037.679-.092 1.007l-.072.436.337.288a6.215 6.215 0 0 1 1.698 2.344H9.091c.326-2.59 2.11-4.57 2.13-4.592l-1.15-1.069c-.099.107-2.228 2.462-2.55 5.661H6.008c-.277-3.811-2.41-6.758-2.509-6.891l-1.258.938c.022.028 1.917 2.657 2.198 5.953H.784v1.57h41.984v11.666H0v8.123h1.568v-6.554z"/>
      <path fill="#BBB9B9" d="M46.476 59.172v-1.4a1.867 1.867 0 0 0-1.864-1.865H38.67l3.552-4.726-1.251-.943-5.444 7.238h9.084c.164 0 .297.132.297.295v1.401h1.567zM38.91 123.59h-.782a1.82 1.82 0 0 0-1.817 1.819v6.828l-4.684 4.683-.878-.877v-21.74h8.16v9.287zm-14.456 10.19l-3.432 3.433v-22.91h8.16v20.173l-.696-.696a2.853 2.853 0 0 0-4.032 0zm-7.361 3.406c.026-.24.042-.484.042-.733a7.102 7.102 0 0 0-3.605-6.178c.116-.441.173-.895.173-1.353 0-1.894-1.027-3.594-2.604-4.56h.196v-10.059h8.16v24.477l-.762.762a7.19 7.19 0 0 0-1.6-2.356zm28.206-7.7a3.469 3.469 0 0 0 .47-4.327h4.413c.138 0 .202.083.232.155.029.07.042.174-.044.259l-4.968 4.745h-.935l.832-.833zM55 114.302V99.499h-3.778c.01-.137.035-.27.035-.41a6.57 6.57 0 0 0-3.288-5.688 5.007 5.007 0 0 0-2.55-5.64 3.66 3.66 0 0 0-3.64-3.974c-.46 0-.896.096-1.302.251v-3.784H38.91v4.95a3.624 3.624 0 0 0-.788 2.241c0 .105.004.21.015.317a5.008 5.008 0 0 0-2.697 4.433c0 .653.125 1.292.376 1.9l1.45-.598a3.422 3.422 0 0 1-.259-1.302c0-1.444.917-2.743 2.284-3.229l.696-.247-.206-.71a2.054 2.054 0 0 1-.092-.564 2.09 2.09 0 0 1 4.179 0c0 .167-.031.348-.092.572l-.198.704.69.245a3.438 3.438 0 0 1 2.28 3.229c0 .448-.087.886-.258 1.302l-.293.709.703.308a5.004 5.004 0 0 1 2.99 4.575c0 .14-.025.274-.037.41H42.22c.32-2.406 1.975-4.242 1.995-4.262l-1.15-1.069c-.093.1-2.097 2.316-2.415 5.331h-9.902V80.254h-1.567v19.245h-8.16V80.254h-1.567v19.245H16.2c.033-.256.058-.514.058-.773a5.89 5.89 0 0 0-.455-2.277 6.735 6.735 0 0 0 1.006-3.551c0-3.192-2.263-5.96-5.342-6.637-.049-.135-.118-.258-.173-.389v-5.618H9.728v3.329a6.88 6.88 0 0 0-4.746-1.91c-1.766 0-3.45.683-4.741 1.922l1.086 1.132a5.267 5.267 0 0 1 3.655-1.484 5.322 5.322 0 0 1 5.122 3.912l.136.497.51.073c2.56.365 4.494 2.588 4.494 5.173a5.194 5.194 0 0 1-.975 3.028l-.275.387.216.424a4.348 4.348 0 0 1 .412 2.762h-6.98c.287-4.024 2.617-7.256 2.644-7.29l-1.259-.938c-.085.115-1.5 2.038-2.357 4.846-.874-1.997-2.064-3.293-2.143-3.377l-1.15 1.07c.027.025 2.241 2.488 2.576 5.689H.783v1.57h52.651v11.664H.783v1.57h8.945v6.782a3.9 3.9 0 0 0-2.877-1.276 3.928 3.928 0 0 0-3.922 3.923c0 .127.007.256.022.389A5.396 5.396 0 0 0 0 128.922h1.567a3.826 3.826 0 0 1 2.542-3.595l.696-.248-.206-.707a2.3 2.3 0 0 1-.103-.64 2.358 2.358 0 0 1 2.355-2.354 2.358 2.358 0 0 1 2.356 2.354c0 .192-.033.395-.103.64l-.206.707.696.248a3.826 3.826 0 0 1 2.541 3.595c0 .498-.098.986-.289 1.45l-.289.709.7.308a5.54 5.54 0 0 1 3.31 5.064c0 .311-.035.613-.083.909l-.07.435.335.287a5.598 5.598 0 0 1 1.49 2.018H8.435c.32-2.302 1.902-4.054 1.92-4.073l-1.15-1.07c-.09.097-2.022 2.233-2.34 5.143H5.613c-.273-3.465-2.207-6.138-2.297-6.259l-1.256.938c.018.027 1.708 2.358 1.984 5.321H.784v1.57h52.649v11.665H.783v.84H0v9.73h1.567v-9h8.16v9h1.568v-9h8.16v9h1.567v-9h8.16v9h1.567v-9h8.16v9h1.568v-9H55v-14.805H43.584l8.332-8.33-1.108-1.11-9.441 9.44H20.35l5.212-5.212c.486-.486 1.33-.486 1.817 0l4.248 4.25 6.252-6.253v-7.478a.25.25 0 0 1 .249-.25h1.688a3.445 3.445 0 0 0-.961 2.387c0 .928.361 1.8 1.018 2.456l1.107-1.11a1.896 1.896 0 0 1-.558-1.346c0-.509.2-.986.558-1.346l.41-.41c.709-.71 1.799-.85 2.534-.332a1.908 1.908 0 0 1 .267 2.918l-3.51 3.512h5.351l5.435-5.193a1.81 1.81 0 0 0 .396-1.981 1.814 1.814 0 0 0-1.68-1.124h-4.606v1.297a3.499 3.499 0 0 0-.75-.712c-.705-.497-1.57-.659-2.415-.54v-.045h-1.935v-9.287H55z"/>
      <path fill="#BBB9B9" d="M43.559 219.01a5.11 5.11 0 0 1 4.916 3.754l.136.497.51.073c2.458.35 4.312 2.484 4.312 4.964a4.984 4.984 0 0 1-.935 2.906l-.276.389.217.424a4.13 4.13 0 0 1 .462 1.905c0 2.285-1.834 4.14-4.104 4.197a28.08 28.08 0 0 1-3.233-.969c.24-2.915 2.28-5.183 2.302-5.207l-1.149-1.07c-.067.074-1.07 1.163-1.85 2.856-.777-2.421-1.985-4.064-2.06-4.164l-1.258.937c.022.028 1.914 2.64 2.316 5.983a61.605 61.605 0 0 1-3.033-1.367l-.355.739v-15.784a5.061 5.061 0 0 1 3.082-1.064zm-4.65 21.575c-2.915-.645-5.596-1.608-8.16-2.693v-43.727h8.16v46.42zm-17.887-7.253v-39.167h8.16v43.033a171.29 171.29 0 0 1-4.837-2.274 258.493 258.493 0 0 0-3.323-1.592zM1.567 194.165h8.16v35.079c-2.519-.579-5.2-.97-8.16-1.026v-34.053zm17.888 0v38.44c-2.566-1.154-5.245-2.208-8.16-2.995v-35.445h8.16zm21.022-30.605H38.91v15.801h-8.16v-15.8h-1.568v15.8h-8.16v-15.8h-1.567v15.8h-3.45c0-.047.014-.093.014-.141a5.25 5.25 0 0 0-.393-2c.576-.95.878-2.027.878-3.143 0-2.844-2.002-5.312-4.736-5.936a6.135 6.135 0 0 0-.473-.988v-3.593H9.728v1.817a6.14 6.14 0 0 0-3.754-1.299 6.18 6.18 0 0 0-5.948 4.54l1.515.415a4.605 4.605 0 0 1 4.433-3.385 4.607 4.607 0 0 1 4.432 3.386l.138.495.508.073a4.542 4.542 0 0 1 3.885 4.475c0 .942-.291 1.847-.843 2.618l-.275.388.216.425a3.725 3.725 0 0 1 .412 1.853H6.56c.28-3.182 2.107-5.721 2.128-5.748l-1.259-.937c-.068.09-1.127 1.532-1.843 3.67-.704-1.472-1.569-2.412-1.63-2.478l-1.148 1.071c.02.02 1.738 1.913 2.06 4.422H.785v1.57h52.649v11.665H0v37.183h.783c9.436 0 15.963 3.184 22.873 6.556 4.847 2.364 9.857 4.808 15.885 5.985l.935.182v-5.819c4.706 2.243 8.689 3.632 13.74 3.632v-1.57c-.76 0-1.49-.044-2.207-.11a5.763 5.763 0 0 0 2.458-4.713c0-.761-.147-1.498-.436-2.195a6.527 6.527 0 0 0 .968-3.429c0-3.087-2.187-5.766-5.161-6.427a6.688 6.688 0 0 0-6.28-4.431 6.637 6.637 0 0 0-3.082.781v-24.056H55v-14.804H40.477v-15.8z"/>
      <polygon fill="#BBB9B9" points=".784 248 54.216 248 54.216 246.431 .784 246.431"/>
    </g>
    <g fill="#BBB9B9" fill-rule="nonzero" transform="translate(261 204)">
      <path d="M0 0v37.57h12.398l.175-.125a18.772 18.772 0 0 0 7.944-15.323v-6.485h-1.353v6.485a17.423 17.423 0 0 1-7.213 14.1H1.352V1.349h52.296v34.873H43.035a17.423 17.423 0 0 1-7.213-14.1v-6.485H34.47v6.485a18.772 18.772 0 0 0 7.957 15.323l.175.126H55V0H0z"/>
      <rect width="6.221" height="1.349" x="24.389" y="15.637"/>
      <path d="M30.61 25.981h-6.22v6.67h6.22v-6.67zm-1.352 5.32h-3.516v-3.97h3.516v3.97zm11.708 12.04h-6.221v8.019h6.221v-8.02zm-1.352 6.67h-3.517v-5.32h3.517v5.32zm-4.869 14.674h6.221v-8.018h-6.221v8.018zm1.352-6.67h3.517v5.321h-3.517v-5.32zm-1.352 19.992h6.221v-8.02h-6.221v8.02zm1.352-6.67h3.517v5.32h-3.517v-5.32zm-3.818-58.461l.031.036.451-.517.532-.4-.063-.073a8.129 8.129 0 0 0-11.464 0l.955.954a6.774 6.774 0 0 1 9.553 0h.005zM20.255 43.341h-6.221v8.019h6.221v-8.02zm-1.352 6.67h-3.517v-5.32h3.517v5.32zm-4.869 14.674h6.221v-8.018h-6.221v8.018zm1.352-6.67h3.517v5.321h-3.517v-5.32zm-1.352 19.992h6.221v-8.02h-6.221v8.02zm1.352-6.67h3.517v5.32h-3.517v-5.32zM30.61 43.341h-6.22v8.019h6.22v-8.02zm-1.352 6.67h-3.516v-5.32h3.516v5.32zM24.39 64.685h6.22v-8.018h-6.22v8.018zm1.352-6.67h3.516v5.321h-3.516v-5.32z"/>
      <polygon points="30.611 69.988 24.389 69.988 24.389 83.651 .676 83.651 .676 85 25.742 85 25.742 71.337 29.258 71.337 29.258 85 54.324 85 54.324 83.651 30.611 83.651"/>
    </g>
    <path stroke="#AEACAC" stroke-dasharray="5.328" stroke-width="1.332" d="M221.37 153.048h17.446v91.47h-62.92"/>
    <g fill="#BBB9B9" fill-rule="nonzero" transform="matrix(-1 0 0 1 230 142)">
      <path d="M28.672 36.217l.947.963a3.477 3.477 0 0 1 4.896.054l.969-.945a4.837 4.837 0 0 0-6.812-.072z"/>
      <path d="M26.459 0v1.35c3.987.002 7.222 3.218 7.24 7.195v7.137a20.596 20.596 0 0 0-5.261-4.367h1.875V9.966H26.63c-5.116.003-9.266 4.134-9.278 9.238V23.7c-.002 4.305-3.488 7.8-7.804 7.825h-2.2C3.48 31.531.257 34.441 0 38.156v.45c.005 3.923 3.195 7.1 7.127 7.1v-1.349a5.773 5.773 0 0 1-5.775-5.734v-.377a5.892 5.892 0 0 1 5.996-5.366h18.105v4.601a4.9 4.9 0 0 0 4.9 4.88h3.377a4.9 4.9 0 0 0 4.9-4.88v-.63l3.188 7.025c.106.255.106.541 0 .796a1.05 1.05 0 0 1-.978.675h-3.607v20.04a17.886 17.886 0 0 1-8.786 2.307h-.036A26.153 26.153 0 0 1 9.837 60.05l-.956.958a27.474 27.474 0 0 0 13.7 7.438V85H55V0H26.459zm-7.754 23.715v-4.498a7.913 7.913 0 0 1 6.875-7.825 19.086 19.086 0 0 1 11.698 17.607v2.527H14.286a9.143 9.143 0 0 0 4.419-7.811zM33.73 41.01h-3.376a3.544 3.544 0 0 1-3.548-3.53v-4.605h10.472v4.605a3.544 3.544 0 0 1-3.548 3.53zm19.918 42.64H23.979V68.679c1.48.242 2.977.364 4.477.364h.036a19.28 19.28 0 0 0 9.805-2.698l.334-.198V46.696h2.254a2.4 2.4 0 0 0 2.015-1.095 2.388 2.388 0 0 0 .171-2.282l-4.418-9.737v-4.583a20.38 20.38 0 0 0-3.58-11.558V8.545a8.563 8.563 0 0 0-3.966-7.196h22.54v82.302z"/>
      <path d="M30.877 46.287H26.45v.66a8.197 8.197 0 0 0 2.294 5.852 8.237 8.237 0 0 0 5.77 2.518l.028-1.349a6.873 6.873 0 0 1-6.735-6.296h3.07v-1.385z"/>
    </g>
    <g fill="#BBB9B9" fill-rule="nonzero" transform="matrix(-1 0 0 1 475 278)">
      <path d="M28.334 40.476l.97.931a4.746 4.746 0 0 1 6.69 0l.942-.93a6.101 6.101 0 0 0-8.602 0zm2.84 12.242h-1.352c-.066 3.908 3.056 7.13 6.974 7.196l.027-1.35c-3.178-.059-5.707-2.676-5.649-5.846z"/>
      <path d="M0 0v16.024l1.095-.859a24.73 24.73 0 0 1 15.17-5.226H28.47c5.483 0 9.932 4.425 9.95 9.894a9.781 9.781 0 0 1-1.249 4.79 23.021 23.021 0 0 0-5.41-6.512h2.61v-1.35h-2.204c-7.792-.004-14.116 6.286-14.133 14.06v42.275c0 3.755 2.948 6.898 6.573 7.006h.212c3.657.002 6.652-2.897 6.762-6.543v-.207h-1.353v.162a5.391 5.391 0 0 1-1.693 3.773 5.417 5.417 0 0 1-3.874 1.47c-2.899-.085-5.275-2.626-5.275-5.657V43.683l.122.121 2.132-2.123a13.265 13.265 0 0 0 3.936-9.444v-2.235a10.942 10.942 0 0 1 3.277-7.803l2.493-2.483-.955-.953-2.493 2.483a12.267 12.267 0 0 0-3.638 8.756v2.217a11.944 11.944 0 0 1-3.54 8.509l-1.334 1.29V30.82c.014-6.136 4.413-11.39 10.464-12.498a21.723 21.723 0 0 1 8.89 17.513v2.505l.158.189c.04.05 3.944 4.776 4.341 12.516a.58.58 0 0 1-.149.423.6.6 0 0 1-.45.193h-3.905v16.25a16.335 16.335 0 0 1-16.982-.667L21 68.36a17.681 17.681 0 0 0 18.759.517l.329-.198V53.01h2.678a1.931 1.931 0 0 0 1.803-2.032c-.383-7.399-3.715-12.103-4.508-13.115V35.84a23.06 23.06 0 0 0-2.164-9.8 11.22 11.22 0 0 0 .524-11.54 11.275 11.275 0 0 0-9.95-5.91H16.265a26.123 26.123 0 0 0-14.914 4.705V1.35h52.296v82.302h-23.09a11.72 11.72 0 0 0 2.83-2.087 11.558 11.558 0 0 0 3.404-8.217H35.44a10.223 10.223 0 0 1-3.007 7.264c-4.034 4.027-10.573 4.045-14.63.04L6.272 69.17l-.956.954L16.848 81.61a11.709 11.709 0 0 0 9.197 3.35V85H55V0H0z"/>
    </g>
    <g stroke="#BBB9B9" stroke-width="1.353" transform="translate(115 263)">
      <polyline stroke-linecap="square" points="42.768 72.571 50.235 72.571 50.235 65.201"/>
      <polyline stroke-linecap="square" points="50.172 75.66 43.324 75.66 45.716 80.6 35.607 85 26.205 85 26.205 76.354 0 76.354"/>
      <path d="M104.25 54.28V0H0v30.125C10.83 23.79 20.646 15.58 29.143 5.896c.713-.811 2.048-.272 2.009.808C30.154 33.897 18.635 57.64 0 71.65"/>
      <path d="M54.171 62.07h0v-3.528c0-1.76-1.47-3.178-3.247-3.084-1.612.085-2.917 1.642-2.917 3.26v.262c0 1.707 1.38 3.09 3.082 3.09"/>
      <polyline stroke-linecap="square" points="67.385 58.494 67.385 65.385 60.273 65.385"/>
      <path stroke-linecap="square" d="M82.807 47.675a3.086 3.086 0 0 1-3.083-3.09v-.262c0-1.618 1.305-3.175 2.917-3.26a3.086 3.086 0 0 1 3.248 3.084v1.442c0 1.153.932 2.086 2.08 2.086m-17.349 7.2h0v-3.528c0-1.76-1.47-3.177-3.247-3.084-1.611.086-2.916 1.643-2.916 3.26v.263c0 1.707 1.38 3.09 3.081 3.09"/>
      <polyline stroke-linecap="square" points="83.758 61.273 75.042 61.273 77.151 65.63 70.62 68.473 70.628 58.495"/>
      <polyline stroke-linecap="square" points="67.458 68.273 58.742 68.273 60.851 72.63 54.32 75.473 54.328 65.495"/>
      <path stroke-linecap="square" d="M104 53.942l-16.84 7.331v-8.446c0-1.27-1.028-2.3-2.295-2.3h-1.107v7.658h-6.146"/>
    </g>
    <g fill="#BBB9B9" fill-rule="nonzero" transform="translate(330 147)">
      <path d="M0 0v25.932l1.235-1.768a15.145 15.145 0 0 1 12.438-6.49 15.18 15.18 0 0 1 13.236 7.74l.591 1.053.59-1.052a15.16 15.16 0 0 1 12.501-7.741 15.169 15.169 0 0 1 13.196 6.49L55 25.932V0H0zm53.648 21.835a16.74 16.74 0 0 0-4.292-3.432c-7.573-4.194-17.107-1.848-21.856 5.379a16.533 16.533 0 0 0-13.822-7.457 16.522 16.522 0 0 0-12.326 5.51V1.349h52.296v20.486z"/>
      <path d="M49.347 27.389l1.113-.77a10.733 10.733 0 0 0-8.809-4.582v1.35a9.375 9.375 0 0 1 7.696 4.002zM27.5 68.917c-9.846-2.27-21.693-14.584-26.21-24.285L0 41.848v43.174h55V41.848l-1.29 2.775c-4.517 9.705-16.36 22.023-26.21 24.294zm26.148 14.734H1.352V47.726c6.353 11.545 18.164 20.81 26.004 22.54l.144.032.144-.031C35.49 68.535 47.295 59.27 53.643 47.73l.005 35.92z"/>
    </g>
    <g stroke="#BBB9B9" stroke-width="1.374" transform="translate(347 263)">
      <polyline points="33.528 68.314 55 68.314 55 0 0 0 0 68.314 21.233 68.314"/>
      <path d="M35.049 54.789c.886.243 1.813.384 2.778.384 5.759 0 10.426-4.65 10.426-10.386 0-1.697-.418-3.294-1.14-4.707a11.984 11.984 0 0 0 2.25-6.993c0-6.089-4.527-11.109-10.407-11.943a12.285 12.285 0 0 0-11.851-9.015 12.286 12.286 0 0 0-11.851 9.015c-5.88.834-10.407 5.854-10.407 11.943 0 2.61.84 5.018 2.252 6.993a10.295 10.295 0 0 0-1.142 4.707c0 5.736 4.668 10.386 10.426 10.386.965 0 1.893-.14 2.778-.384"/>
      <path d="M35.786 44.745a11.524 11.524 0 0 0-5.058 2.859v-7.226m-11.752 4.367a11.524 11.524 0 0 1 5.059 2.859v-7.226"/>
      <line x1="27.5" x2="27.5" y1="65.988" y2="86"/>
      <path d="M27.5 65.988v1.027c0 1.234.491 2.418 1.368 3.29l5.122 5.101a3.49 3.49 0 0 1 1.026 2.47v4.476M27.5 65.988v1.027a4.645 4.645 0 0 1-1.369 3.29l-3.473 3.46a3.49 3.49 0 0 0-1.026 2.468v4.012m18.566-31.918c-4.518 0-8.179 3.648-8.179 8.147v7.893a5.82 5.82 0 0 0 3.682 5.407l6.474 2.564a3.493 3.493 0 0 1 2.209 3.245V77.9M14.801 48.327c4.518 0 8.18 3.648 8.18 8.147v7.893a5.82 5.82 0 0 1-3.683 5.407l-6.474 2.564a3.493 3.493 0 0 0-2.209 3.245V77.9"/>
    </g>
  </g>
</svg>
