<svg xmlns="http://www.w3.org/2000/svg" width="244" height="200" viewBox="0 0 244 200">
  <g fill="none" fill-rule="evenodd" transform="matrix(-1 0 0 1 244 0)">
    <g transform="translate(85.618 56.401)">
      <g fill="#BBB9B9" fill-rule="nonzero" transform="translate(0 19.235)">
        <path d="M29.726 1.641A2.317 2.317 0 0 0 27.503 0a2.316 2.316 0 0 0-2.222 1.641H0v1.342h25.272c.23.723.804 1.288 1.534 1.512v4.59h-7.441l-.19.353a16.054 16.054 0 0 0 0 15.36l.19.354H35.65l.194-.353a16.054 16.054 0 0 0 0-15.361l-.194-.353h-7.473v-4.59a2.323 2.323 0 0 0 1.539-1.512h25.34V1.641H29.725zm5.1 22.17H20.18a14.685 14.685 0 0 1-1.227-9.945h17.149a14.685 14.685 0 0 1-1.278 9.944zm.866-11.287H19.315c.236-.713.525-1.409.866-2.08h14.644c.341.671.631 1.367.867 2.08zM26.54 2.3a.966.966 0 0 1 .961-.958.97.97 0 0 1 .966.958.927.927 0 0 1-.289.675.957.957 0 0 1-1.331 0 .936.936 0 0 1-.307-.675zm19.238 58.95v-6.168l.18.175 3.114-3.087-.956-.948-2.338 2.317v-4.585h-1.354v2.487l-1.354-1.342-.956.948 2.306 2.286v7.922a2.727 2.727 0 0 1-2.73 2.71h-9.333v-16.59l-8.44-5.905-7.739 5.43-7.748-5.43L0 47.375v17.933h1.354v-7.86h6.399v7.86h1.354v-7.86h6.4v7.86h1.353v-7.86h6.386v7.86h1.353v-7.86h6.404v7.86H41.69a4.103 4.103 0 0 0 3.417-1.83 4.103 4.103 0 0 0 3.411 1.83h6.49v-1.342h-6.49c-1.51-.005-2.734-1.218-2.739-2.715zM7.758 47.054H2.793l4.965-3.471v3.47zM9.11 43.59l4.933 3.462H9.11V43.59zm14.135 3.462H18.28l4.965-3.467v3.467zm1.353-3.467l4.964 3.467H24.6v-3.467zM1.354 56.106v-7.711h6.404v7.712H1.354zm7.757 0v-7.711h6.4v7.712h-6.4zm7.749 0v-7.711h6.39v7.712h-6.39zm7.74 0v-7.711h6.403v7.712H24.6z"></path>
        <path d="M52.62 42.454a5.82 5.82 0 0 0-2.08-.894c-1.022-2.809-4.05-4.367-6.955-3.579a5.784 5.784 0 0 0-3.917 3.579 5.687 5.687 0 0 0-3.997 3.31 5.606 5.606 0 0 0 .386 5.149 4.91 4.91 0 0 0 .46 4.637 5.003 5.003 0 0 0 5.497 2.014l-.365-1.288a3.652 3.652 0 0 1-3.801-1.188 3.575 3.575 0 0 1-.414-3.93l.19-.362-.24-.33a4.276 4.276 0 0 1-.451-4.194 4.34 4.34 0 0 1 3.376-2.566l.45-.062.118-.448a4.408 4.408 0 0 1 3.096-3.068 4.443 4.443 0 0 1 3.35.422 4.376 4.376 0 0 1 2.065 2.646l.118.448.45.062a4.327 4.327 0 0 1 1.914.76 4.283 4.283 0 0 1 1.011 6l-.239.33.185.363a3.58 3.58 0 0 1-.42 3.924 3.656 3.656 0 0 1-3.795 1.193l-.365 1.293a5.019 5.019 0 0 0 5.052-1.516 4.914 4.914 0 0 0 .855-5.163 5.623 5.623 0 0 0-1.535-7.542z"></path>
      </g>
      <path fill="#FFF" d="M26.54 21.534a.966.966 0 0 1 .961-.957.97.97 0 0 1 .966.957.927.927 0 0 1-.289.675.957.957 0 0 1-1.331 0 .936.936 0 0 1-.307-.675z"></path>
    </g>
    <polyline stroke="#BBB9B9" stroke-width="1.335" points="139.92 83.871 165.795 83.871 165.795 140.441" transform="matrix(1 0 0 -1 0 224.312)"></polyline>
    <path fill="#BBB9B9" fill-rule="nonzero" d="M195.116 83.201v-34.48h-2.423l4.264-8.579h20.552l-34.735-24.486V5.905c0-3.261-2.667-5.905-5.957-5.905s-5.957 2.644-5.957 5.905v2.147h-1.837a3.614 3.614 0 0 0-3.254 1.986l1.21.604a2.281 2.281 0 0 1 2.048-1.248h1.833v13.544c.01 9.496 7.772 17.192 17.351 17.204h1.354l-4.264 8.58h-3.272V83.2h-16.955v1.342h18.309v-34.48h10.38v34.48h26.368V83.2h-25.015zm-22.902-60.263V5.905c0-2.52 2.06-4.563 4.603-4.563 2.542 0 4.603 2.043 4.603 4.563v19.467c.005 4.58 3.75 8.293 8.371 8.298h9.838v-1.342h-9.838c-3.874-.005-7.012-3.117-7.017-6.956V17.32l30.493 21.471H188.21c-8.828-.012-15.983-7.102-15.997-15.853zm18.877 17.204h4.355l-4.26 8.58h-4.36l4.265-8.58zM0 60.408h26.292V50.32l15.393 6.063v4.035h13.371v30.621h-38.58v2.776h-1.354v-2.776H0v-30.63zm49.077 22.164h4.626v-5.797H41.685v6.47c0 1.085 1.403 2 3.064 2 1.66 0 3.064-.897 3.064-2s-1.403-1.986-3.064-1.986v-1.346c2.13 0 3.913 1.14 4.328 2.66zm4.626-7.12v-5.78H41.685v5.78h12.018zM40.33 76.797H16.476v5.775h23.855v-5.775zm-25.209 1.726a5.236 5.236 0 0 1-3.064.942c-2.13 0-3.935-1.152-4.328-2.69H1.354v5.797h13.768v-4.049zm-6.128-3.071v.668c0 1.103 1.385 2 3.064 2s3.06-.897 3.064-1.991c0-1.08-1.403-1.995-3.064-1.995v-1.346c2.13 0 3.917 1.148 4.328 2.668H40.33v-5.784h-5.289c-.402 1.538-2.162 2.663-4.332 2.663s-3.917-1.143-4.328-2.663H1.354v5.78h7.64zm26.044-7.125h5.293v-6.574H27.646V69c0 1.081 1.403 1.996 3.064 1.996 1.66 0 3.064-.897 3.064-1.996 0-1.098-1.404-1.995-3.064-1.995V65.66c2.13 0 3.917 1.148 4.328 2.668zM1.354 61.753v6.574h24.938v-6.574H1.354zm38.977-4.457l-12.685-5v8.112H40.33v-3.112zm1.354 4.457v6.574h12.018v-6.574H41.685zm12.018 27.94v-5.78h-4.626c-.41 1.525-2.193 2.69-4.328 2.69-2.134 0-3.917-1.147-4.328-2.69H16.476v5.78h37.227zm-38.58 0v-5.78H1.352v5.78h13.77z"></path>
    <g fill="#BBB9B9" fill-rule="nonzero" transform="translate(11.167 117.246)">
      <path d="M17.695 31.062a5.207 5.207 0 0 0 2.613-.694l9.26-5.318-.686-1.145-9.265 5.3c-1.848 1.055-4.21.429-5.28-1.4l-5.356-9.183-1.17.67 5.357 9.184a5.226 5.226 0 0 0 4.527 2.586z"></path>
      <path d="M12.79 17.861l9.273 5.301L22.74 22l-9.274-5.3a3.825 3.825 0 0 1-1.804-2.323 3.79 3.79 0 0 1 .387-2.907l5.352-9.179-1.155-.67-5.37 9.178a5.131 5.131 0 0 0-.52 3.925 5.177 5.177 0 0 0 2.433 3.138z"></path>
      <path d="M21.328 5.167c.005-2.112 1.732-3.823 3.863-3.825h10.708V0H25.191c-2.879.002-5.212 2.313-5.217 5.167v10.605h1.354V5.167z"></path>
      <path d="M25.394 10.288l.677 1.163 9.273-5.305c1.847-1.046 4.2-.42 5.271 1.4l5.362 9.184 1.173-.671-5.357-9.184c-1.444-2.468-4.63-3.314-7.126-1.892l-9.273 5.305z"></path>
      <path d="M37.556 33.061l1.173.676 5.334-9.135v-.04a5.127 5.127 0 0 0 .535-3.925 5.173 5.173 0 0 0-2.426-3.147l-9.274-5.3-.676 1.162 9.296 5.301a3.81 3.81 0 0 1 1.417 5.23l-5.38 9.178z"></path>
      <path d="M28.155 81.412v-9.743c9.18-.993 17.285-9.098 18.138-18.21l.076-.805-.812.076c-7.744.711-14.775 6.513-17.402 13.75V35.338h1.756c2.796-.002 5.064-2.243 5.077-5.014V19.588h-1.354v10.736c-.012 2.03-1.675 3.67-3.723 3.672H19.058v1.342h7.744v22.527C24.175 50.64 17.149 44.839 9.4 44.123l-.826-.071.077.805c.853 9.107 8.958 17.222 18.137 18.215v18.34H0v1.342h55.056v-1.342h-26.9zm16.698-27.25c-1.169 7.975-8.213 14.953-16.246 16.103 1.146-7.972 8.19-14.95 16.246-16.104zm-34.749-8.603c8.051 1.154 15.096 8.128 16.246 16.104-8.028-1.154-15.068-8.128-16.237-16.104h-.009z"></path>
    </g>
    <path fill="#BBB9B9" fill-rule="nonzero" d="M229.897 106.542l-13.425 8.052-13.426-8.052-14.102 8.441v72.076H244v-72.076l-14.103-8.44zm-39.6 21.758l12.086-7.233v10.995l-12.086 7.233V128.3zm25.507 23.56l-12.072-7.224v-10.99l12.072 7.224v10.99zm1.354-11.004l12.058-7.22v10.995l-12.058 7.22v-10.995zm0-1.566v-10.995l12.063-7.22v10.996l-12.063 7.22zm-1.354 0l-12.067-7.215v-10.99l12.071 7.224-.004 10.981zm-13.426 14.315h-12.08v-.215l12.08-7.197v7.412zm1.354-7.435l12.072 7.229v.206h-12.072v-7.435zm13.426 7.215l12.058-7.183v7.434h-12.058v-.25zm12.063-33.87l-12.059 7.21v-10.99l12.059-7.22v11zm-13.413 7.228l-12.071-7.228v-10.991l12.071 7.229v10.99zm-25.51 14.118l12.085-7.234v10.996l-12.086 7.233V140.86zm0 14.117h12.08v14.359h-12.08v-14.36zm13.434 0h12.072v14.359h-12.076l.004-14.36zm12.067 15.7v15.04h-12.071v-15.04h12.071zm1.354 0h12.058v15.04H217.15l.004-15.04zm0-1.341v-14.36h12.058v14.36h-12.058zm13.412-14.36h12.081v14.36h-12.08v-14.36zm0-1.341v-7.443l12.081 7.228v.215h-12.08zm0-9.009v-10.995l12.081 7.233v10.99l-12.08-7.228zm0-12.56v-10.991l12.081 7.224v10.995l-12.08-7.229zm12.081-5.333l-12.072-7.22v-10.999l12.072 7.229v10.99zm-40.259-18.228v11.009l-12.09 7.22v-10.991l12.09-7.238zm-12.09 62.173h12.077v15.039h-12.077v-15.04zm40.264 15.039v-15.04h12.085v15.04h-12.085z"></path>
  </g>
</svg>