<svg xmlns="http://www.w3.org/2000/svg" width="300" height="144" viewBox="0 0 300 144">
  <g fill="none" fill-rule="evenodd">
    <g fill="#BBB9B9" fill-rule="nonzero" transform="matrix(-1 0 0 1 145 0)">
      <path d="M28.672 36.217l.947.963a3.477 3.477 0 0 1 4.896.054l.969-.945a4.837 4.837 0 0 0-6.812-.072z"></path>
      <path d="M26.459 0v1.35c3.987.002 7.222 3.218 7.24 7.195v7.137a20.596 20.596 0 0 0-5.261-4.367h1.875V9.966H26.63c-5.116.003-9.266 4.134-9.278 9.238V23.7c-.002 4.305-3.488 7.8-7.804 7.825h-2.2C3.48 31.531.257 34.441 0 38.156v.45c.005 3.923 3.195 7.1 7.127 7.1v-1.349a5.773 5.773 0 0 1-5.775-5.734v-.377a5.892 5.892 0 0 1 5.996-5.366h18.105v4.601a4.9 4.9 0 0 0 4.9 4.88h3.377a4.9 4.9 0 0 0 4.9-4.88v-.63l3.188 7.025c.106.255.106.541 0 .796a1.05 1.05 0 0 1-.978.675h-3.607v20.04a17.886 17.886 0 0 1-8.786 2.307h-.036A26.153 26.153 0 0 1 9.837 60.05l-.956.958a27.474 27.474 0 0 0 13.7 7.438V85H55V0H26.459zm-7.754 23.715v-4.498a7.913 7.913 0 0 1 6.875-7.825 19.086 19.086 0 0 1 11.698 17.607v2.527H14.286a9.143 9.143 0 0 0 4.419-7.811zM33.73 41.01h-3.376a3.544 3.544 0 0 1-3.548-3.53v-4.605h10.472v4.605a3.544 3.544 0 0 1-3.548 3.53zm19.918 42.64H23.979V68.679c1.48.242 2.977.364 4.477.364h.036a19.28 19.28 0 0 0 9.805-2.698l.334-.198V46.696h2.254a2.4 2.4 0 0 0 2.015-1.095 2.388 2.388 0 0 0 .171-2.282l-4.418-9.737v-4.583a20.38 20.38 0 0 0-3.58-11.558V8.545a8.563 8.563 0 0 0-3.966-7.196h22.54v82.302z"></path>
      <path d="M30.877 46.287H26.45v.66a8.197 8.197 0 0 0 2.294 5.852 8.237 8.237 0 0 0 5.77 2.518l.028-1.349a6.873 6.873 0 0 1-6.735-6.296h3.07v-1.385z"></path>
    </g>
    <g fill="#BBB9B9" fill-rule="nonzero" transform="matrix(-1 0 0 1 55 49.799)">
      <path d="M17.677 31.23a5.176 5.176 0 0 0 2.61-.697l9.25-5.348-.685-1.151-9.255 5.33a3.873 3.873 0 0 1-5.274-1.408L8.97 18.722l-1.167.675 5.35 9.233a5.214 5.214 0 0 0 4.523 2.6z"></path>
      <path d="M12.776 17.958l9.265 5.33.676-1.17-9.265-5.33a3.833 3.833 0 0 1-1.416-5.257l5.348-9.228-1.154-.675-5.365 9.229a5.188 5.188 0 0 0 1.911 7.1z"></path>
      <path d="M21.306 5.194a3.859 3.859 0 0 1 3.859-3.845h10.698V0H25.165a5.21 5.21 0 0 0-5.212 5.194v10.664h1.353V5.194z"></path>
      <path d="M25.368 10.344l.676 1.17 9.264-5.335a3.878 3.878 0 0 1 5.266 1.408l5.356 9.233 1.172-.674-5.352-9.234a5.227 5.227 0 0 0-7.118-1.902l-9.264 5.334z"></path>
      <path d="M37.517 33.24l1.172.679 5.329-9.184v-.04a5.184 5.184 0 0 0-1.889-7.11l-9.264-5.33-.676 1.17 9.286 5.329a3.845 3.845 0 0 1 1.416 5.257l-5.374 9.229z"></path>
      <path d="M28.127 81.852v-9.795c9.17-.999 17.266-9.148 18.118-18.31l.077-.809-.812.077c-7.736.715-14.76 6.548-17.383 13.825V35.53h1.753a5.07 5.07 0 0 0 5.072-5.042V19.694H33.6v10.794a3.72 3.72 0 0 1-3.72 3.692H19.038v1.35h7.736v22.648C24.15 50.915 17.131 45.08 9.391 44.362l-.825-.072.076.81c.852 9.156 8.949 17.314 18.119 18.313v18.439H0v1.35h55v-1.35H28.127zm16.68-27.398c-1.168 8.019-8.205 15.035-16.23 16.19 1.146-8.014 8.183-15.03 16.23-16.19zm-34.713-8.648c8.042 1.16 15.08 8.171 16.23 16.19-8.02-1.16-15.054-8.172-16.221-16.19h-.01z"></path>
    </g>
    <g fill="#BBB9B9" fill-rule="nonzero" transform="matrix(-1 0 0 1 211 46.947)">
      <polygon points="44.167 58.735 43.824 58.061 43.482 57.386 41.967 57.386 42.309 58.061 42.652 58.735 52.795 78.704 2.2 78.704 12.348 58.735 12.691 58.061 13.033 57.386 11.518 57.386 11.176 58.061 10.833 58.735 0 80.053 55 80.053"></polygon>
      <path d="M16.766 18.776a7.91 7.91 0 0 1 4.873-7.299 7.442 7.442 0 0 1 1.028-.342 5.41 5.41 0 0 0 4.833 3.036 5.361 5.361 0 0 0 4.828-3.036 7.9 7.9 0 0 1 5.906 7.646v7.888h1.352v-7.893a9.264 9.264 0 0 0-6.825-8.922c.07-.354.107-.714.108-1.075V5.302C32.54 2.28 30.232 0 27.5 0a5.403 5.403 0 0 0-5.374 5.397V8.8c0 .36.035.718.104 1.07a9.264 9.264 0 0 0-6.816 8.905v7.893h1.352v-7.893zm6.713-9.997V5.397a4.046 4.046 0 0 1 2.128-3.571c.784 3.4 3.372 5.302 5.91 5.59V8.81c0 .265-.026.528-.077.787a4.055 4.055 0 0 1-3.94 3.225 4.055 4.055 0 0 1-3.927-3.225 4.098 4.098 0 0 1-.094-.818zm4.021-7.43c2.308 0 3.787 2.087 4.017 4.048v.647c-2.48-.323-4.107-2.415-4.621-4.668.2-.025.402-.034.604-.027zM19.214 37.89v-1.349a4.075 4.075 0 0 1 4.057-4.075v-1.349a5.43 5.43 0 0 0-5.41 5.424v11.333a3.071 3.071 0 0 0-1.749 2.775v1.93h5.496v-1.35h-4.143v-.58c0-.95.769-1.724 1.722-1.731h2.42v-1.35h-2.393V37.89zm18.321 19.5h-4.143v1.35h5.496v-1.93a3.062 3.062 0 0 0-1.754-2.77V36.537a5.426 5.426 0 0 0-5.41-5.424v1.349a4.075 4.075 0 0 1 4.058 4.075V53.73h-2.394v1.35h2.42a1.73 1.73 0 0 1 1.727 1.726v.585z"></path>
      <path d="M32.572 29.471l1.56-2.802h1.884V25.32h-2.705l-1.56 2.802h-8.565l-1.524-2.802H18.98v1.35h1.888l1.56 2.801h4.396v3.36a2.64 2.64 0 0 0-1.217 4.407c.3.314.675.546 1.09.675l.127.036v2.527a2.646 2.646 0 0 0-1.975 2.56V63.3a2.652 2.652 0 0 0 2.651 2.61h.04a2.634 2.634 0 0 0 2.606-2.618V43.017a2.641 2.641 0 0 0-1.97-2.54v-2.55l.126-.037c.416-.129.791-.36 1.091-.674a2.64 2.64 0 0 0-1.217-4.385v-3.36h4.396zm-3.778 27.915v5.887a1.288 1.288 0 0 1-1.294 1.278 1.301 1.301 0 0 1-1.298-1.269v-20.26a1.299 1.299 0 1 1 2.592 0v14.364zm0-22.037c.006.457-.228.884-.618 1.125a1.278 1.278 0 0 1-1.352 0 1.298 1.298 0 0 1 .676-2.407 1.299 1.299 0 0 1 1.294 1.3v-.018z"></path>
    </g>
    <polyline stroke="#BBB9B9" stroke-width="1.35" points="27.312 131.171 27.312 61.548 113.688 61.548 113.688 -8.829" transform="rotate(-90 70.5 61.171)"></polyline>
    <g fill="#BBB9B9" fill-rule="nonzero" transform="matrix(-1 0 0 1 300 58)">
      <path d="M0 0v37.57h12.398l.175-.125a18.772 18.772 0 0 0 7.944-15.323v-6.485h-1.353v6.485a17.423 17.423 0 0 1-7.213 14.1H1.352V1.349h52.296v34.873H43.035a17.423 17.423 0 0 1-7.213-14.1v-6.485H34.47v6.485a18.772 18.772 0 0 0 7.957 15.323l.175.126H55V0H0z"></path>
      <rect width="6.221" height="1.349" x="24.389" y="15.637"></rect>
      <path d="M30.61 25.981h-6.22v6.67h6.22v-6.67zm-1.352 5.32h-3.516v-3.97h3.516v3.97zm11.708 12.04h-6.221v8.019h6.221v-8.02zm-1.352 6.67h-3.517v-5.32h3.517v5.32zm-4.869 14.674h6.221v-8.018h-6.221v8.018zm1.352-6.67h3.517v5.321h-3.517v-5.32zm-1.352 19.992h6.221v-8.02h-6.221v8.02zm1.352-6.67h3.517v5.32h-3.517v-5.32zm-3.818-58.461l.031.036.451-.517.532-.4-.063-.073a8.129 8.129 0 0 0-11.464 0l.955.954a6.774 6.774 0 0 1 9.553 0h.005zM20.255 43.341h-6.221v8.019h6.221v-8.02zm-1.352 6.67h-3.517v-5.32h3.517v5.32zm-4.869 14.674h6.221v-8.018h-6.221v8.018zm1.352-6.67h3.517v5.321h-3.517v-5.32zm-1.352 19.992h6.221v-8.02h-6.221v8.02zm1.352-6.67h3.517v5.32h-3.517v-5.32zM30.61 43.341h-6.22v8.019h6.22v-8.02zm-1.352 6.67h-3.516v-5.32h3.516v5.32zM24.39 64.685h6.22v-8.018h-6.22v8.018zm1.352-6.67h3.516v5.321h-3.516v-5.32z"></path>
      <polygon points="30.611 69.988 24.389 69.988 24.389 83.651 .676 83.651 .676 85 25.742 85 25.742 71.337 29.258 71.337 29.258 85 54.324 85 54.324 83.651 30.611 83.651"></polygon>
    </g>
    <path stroke="#BBB9B9" stroke-dasharray="5.625" stroke-width="1.35" d="M194.737 143.263h33V42h52.671"></path>
  </g>
</svg>