<svg xmlns="http://www.w3.org/2000/svg" width="211" height="128" viewBox="0 0 211 128">
  <g fill="none" fill-rule="evenodd">
    <g fill="#BBB9B9" fill-rule="nonzero" transform="matrix(-1 0 0 1 142.8 0)">
      <path d="M5.739 45.45l-.546-.396-.545-.4c-.19.252-4.553 6.342-.059 15.291 4.103 8.172-.261 13.807-.45 14.041l1.054.845c.208-.26 5.104-6.52.6-15.488-4.102-8.181-.095-13.834-.054-13.893zm22.847 4.718l.5-.5.506-.4-.054-.053a3.726 3.726 0 0 0-5.252 0l.96.957a2.37 2.37 0 0 1 3.34-.004z"></path>
      <path d="M0 0v29.296l1.041-.67a19.496 19.496 0 0 1 10.545-3.086h3.71c10.544.005 19.196 8.328 19.584 18.84h-5.157c-.118-4.542-1.412-8.85-3.575-11.887l-1.123.787c2.024 2.816 3.228 6.832 3.345 11.1h-6.487c-.077-4.497-.956-8.77-2.44-11.792l-1.212.593c1.393 2.843 2.223 6.895 2.3 11.199h-5.577l-.203.274c-.167.225-4.058 5.622-.059 13.55 3.584 7.143-.22 12.067-.387 12.274l.531.423.528.423c.185-.234 4.508-5.784.536-13.726-3.155-6.297-.928-10.74-.239-11.869h15.134v.216l3.783 6.674-3.783 2.249v4.497a15.365 15.365 0 0 1-.865 5.14 4.722 4.722 0 0 1-4.13-4.686h-1.352a6.089 6.089 0 0 0 4.959 5.973 15.55 15.55 0 0 1-14.11 9.089h-.677V85H55V0H0zm53.648 83.65H15.973v-7.433c9.053-.372 16.195-7.813 16.175-16.852v-3.737l4.256-2.523-4.18-7.394h4.017v-.674c-.032-11.519-9.398-20.84-20.945-20.846h-3.714a20.84 20.84 0 0 0-10.23 2.676V1.35h52.296v82.302z"></path>
    </g>
    <g fill="#BBB9B9" fill-rule="nonzero" transform="matrix(-1 0 0 1 210.8 46.448)">
      <path d="M33.703 12.287L55 5.042l-.45-1.278L34.19 10.7a6.787 6.787 0 0 0-6.014-5.698V1.35h3.03V0h-7.412v1.35h3.03V5a6.755 6.755 0 0 0-6.014 5.7L.45 3.764 0 5.042l21.297 7.245h12.406zM27.5 6.297h.05a5.405 5.405 0 0 1 5.31 4.64H22.14a5.406 5.406 0 0 1 5.36-4.64zm27.05 22.751l.45-1.277-21.297-7.25H21.297L0 27.771l.45 1.277 20.161-6.867-6.699 57.422H.221v1.35h25.354v-7.511a1.918 1.918 0 0 1 1.925-1.907 1.918 1.918 0 0 1 1.925 1.907v7.51h25.359v-1.349H41.092L34.39 22.181l20.16 6.867zM30.781 79.603v-6.17a3.278 3.278 0 0 0-3.282-3.274 3.278 3.278 0 0 0-3.282 3.274v6.17h-8.944l6.74-57.732h10.972l6.74 57.732h-8.944z"></path>
      <rect width="1.352" height="4.637" x="32.914" y="14.086"></rect>
      <rect width="1.352" height="4.637" x="20.733" y="14.086"></rect>
      <path d="M25.417 56.667h4.166V50.37h-4.166v6.297zm1.353-4.947h1.46v3.597h-1.46V51.72zm-1.353-12.229h4.166v-6.296h-4.166v6.296zm1.353-4.947h1.46v3.598h-1.46v-3.598z"></path>
    </g>
    <g fill="#BBB9B9" fill-rule="nonzero" transform="matrix(-1 0 0 1 55 49.396)">
      <rect width="16.432" height="1.349" x="13.588" y="67.856"></rect>
      <rect width="9.264" height="1.349" x="36.566" y="67.856"></rect>
      <path d="M.05 0L0 60.606h9.959l-.74-1.061a15.935 15.935 0 0 1-2.416-7.164c2.502-1.574 4.815-2.577 8.115-2.699v10.92h1.352V49.673a19.03 19.03 0 0 1 9.661 2.946 19.335 19.335 0 0 0 6.077 2.487v5.5h7.123l-1.866-4.866H46.1a21.323 21.323 0 0 1-1.546 3.881l-.492.976H55V0H.05zm33.31 59.257v-5.289a.863.863 0 0 1 .334-.674.84.84 0 0 1 .532-.185.866.866 0 0 1 .776.495l.027.058.234.612.537 1.399 1.352 3.598-3.791-.014zm4.265-4.839h-.901l-.149-.387-.311-.81a2.214 2.214 0 0 0-4.265.54 18.057 18.057 0 0 1-4.905-2.041l-.45-.27a20.306 20.306 0 0 0-3.607-1.8h17.402v4.705h-2.814v.063zm16.023 4.84h-7.416a16.19 16.19 0 0 0 1.384-4.089l.103-.769h-5.896v-6.053H16.275v-5.393H40.55v-1.349h-1.578L16.315 9.225V7.496h-1.352v40.829c-3.783.116-6.348 1.285-9.183 3.111l-.307.203v.364c0 2.1.861 5.095 2.02 7.24h-6.14L1.401 1.35h52.246v57.908zM16.315 11.584l21.008 30.038h-21.03l.022-30.038z"></path>
      <rect width="16.414" height="1.349" x="24.786" y="76.455"></rect>
    </g>
    <path stroke="#BBB9B9" stroke-dasharray="5.625" stroke-width="1.35" d="M139.532 99.973h-69.29V31.088H.2"></path>
  </g>
</svg>